<svg width="40" height="40" viewBox="0 0 40 40" fill="none" xmlns="http://www.w3.org/2000/svg">
<circle cx="20" cy="20" r="20" fill="url(#paint0_linear_621_25401)"/>
<path d="M20.2632 29.987L32.7145 25.4612C33.8841 24.9715 34.083 24.4819 33.8801 23.2065L31.7598 16.0228C31.4734 15.0188 30.8647 14.5909 30.0452 14.6321L11.8815 15.8047C11.2569 15.8417 10.9745 16.2161 11.2132 16.8168L15.8595 27.9545C16.8063 30.1639 17.9918 30.8016 20.2632 29.987Z" fill="white"/>
<path d="M10.4897 15.1209L9.6941 13.1912C9.62514 13.0684 9.53033 12.9632 9.41671 12.8834C9.30308 12.8037 9.17355 12.7514 9.03772 12.7304H6.13772C6.02581 12.7194 5.9131 12.7399 5.81149 12.7896C5.70987 12.8394 5.62313 12.9165 5.56039 13.013C5.49766 13.1095 5.46127 13.2217 5.45506 13.3378C5.44884 13.4539 5.47305 13.5696 5.5251 13.6726L6.32469 15.6105C6.37841 15.7604 6.47855 15.8876 6.60951 15.9725C6.74047 16.0573 6.89489 16.095 7.0487 16.0795L10.0839 15.8903C10.5653 15.8491 10.6687 15.5488 10.4897 15.1209Z" fill="white"/>
<defs>
<linearGradient id="paint0_linear_621_25401" x1="38.8703" y1="40" x2="2.75854" y2="-5.69759" gradientUnits="userSpaceOnUse">
<stop stop-color="#EE6B00"/>
<stop offset="1" stop-color="#FFE45E"/>
</linearGradient>
</defs>
</svg>
